<svg width="1920" height="1080" viewBox="0 0 1920 1080" xmlns="http://www.w3.org/2000/svg">
  <defs>
    <!-- Gradients for the corners -->
    <radialGradient id="topLeftGradient" cx="0%" cy="0%" r="100%">
      <stop offset="0%" style="stop-color:#3b82f6;stop-opacity:0.8" />
      <stop offset="70%" style="stop-color:#1d4ed8;stop-opacity:0.4" />
      <stop offset="100%" style="stop-color:#1e40af;stop-opacity:0.1" />
    </radialGradient>
    
    <radialGradient id="topRightGradient" cx="100%" cy="0%" r="100%">
      <stop offset="0%" style="stop-color:#fbbf24;stop-opacity:0.8" />
      <stop offset="70%" style="stop-color:#f59e0b;stop-opacity:0.4" />
      <stop offset="100%" style="stop-color:#d97706;stop-opacity:0.1" />
    </radialGradient>
    
    <radialGradient id="bottomLeftGradient" cx="0%" cy="100%" r="100%">
      <stop offset="0%" style="stop-color:#10b981;stop-opacity:0.8" />
      <stop offset="70%" style="stop-color:#059669;stop-opacity:0.4" />
      <stop offset="100%" style="stop-color:#047857;stop-opacity:0.1" />
    </radialGradient>
    
    <radialGradient id="bottomRightGradient" cx="100%" cy="100%" r="100%">
      <stop offset="0%" style="stop-color:#8b5cf6;stop-opacity:0.8" />
      <stop offset="70%" style="stop-color:#7c3aed;stop-opacity:0.4" />
      <stop offset="100%" style="stop-color:#6d28d9;stop-opacity:0.1" />
    </radialGradient>
    
    <!-- Pattern for subtle texture -->
    <pattern id="gridPattern" x="0" y="0" width="40" height="40" patternUnits="userSpaceOnUse">
      <path d="M 40 0 L 0 0 0 40" fill="none" stroke="#ffffff" stroke-width="0.5" opacity="0.1"/>
    </pattern>
  </defs>
  
  <!-- Background -->
  <rect width="1920" height="1080" fill="#f8fafc"/>
  <rect width="1920" height="1080" fill="url(#gridPattern)"/>
  
  <!-- Top Left Corner - Trust & Security Theme -->
  <g transform="translate(0, 0)">
    <circle cx="0" cy="0" r="400" fill="url(#topLeftGradient)"/>
    
    <!-- Shield icons representing trust -->
    <g transform="translate(150, 150)" opacity="0.6">
      <path d="M0 -30L-20 -40L-40 -30V-10C-40 10 -20 20 -20 20S0 10 0 -10V-30Z" 
            fill="#ffffff" stroke="#3b82f6" stroke-width="2"/>
      <path d="M-15 -5L-10 0L-5 -5" stroke="#3b82f6" stroke-width="3" fill="none" stroke-linecap="round"/>
    </g>
    
    <g transform="translate(200, 200)" opacity="0.4">
      <path d="M0 -20L-15 -25L-30 -20V-5C-30 5 -15 10 -15 10S0 5 0 -5V-20Z" 
            fill="#ffffff" stroke="#3b82f6" stroke-width="1.5"/>
      <path d="M-10 -2L-7 0L-4 -2" stroke="#3b82f6" stroke-width="2" fill="none" stroke-linecap="round"/>
    </g>
    
    <g transform="translate(100, 250)" opacity="0.3">
      <path d="M0 -15L-10 -20L-20 -15V-5C-20 5 -10 10 -10 10S0 5 0 -5V-15Z" 
            fill="#ffffff" stroke="#3b82f6" stroke-width="1"/>
      <path d="M-7 -2L-5 0L-3 -2" stroke="#3b82f6" stroke-width="1.5" fill="none" stroke-linecap="round"/>
    </g>
  </g>
  
  <!-- Top Right Corner - AI & Technology Theme -->
  <g transform="translate(1920, 0)">
    <circle cx="0" cy="0" r="400" fill="url(#topRightGradient)"/>
    
    <!-- AI circuit patterns -->
    <g transform="translate(-200, 150)" opacity="0.6">
      <circle cx="0" cy="0" r="8" fill="#ffffff"/>
      <circle cx="-30" cy="-20" r="4" fill="#ffffff"/>
      <circle cx="30" cy="-20" r="4" fill="#ffffff"/>
      <circle cx="-30" cy="20" r="4" fill="#ffffff"/>
      <circle cx="30" cy="20" r="4" fill="#ffffff"/>
      <line x1="0" y1="0" x2="-30" y2="-20" stroke="#ffffff" stroke-width="2"/>
      <line x1="0" y1="0" x2="30" y2="-20" stroke="#ffffff" stroke-width="2"/>
      <line x1="0" y1="0" x2="-30" y2="20" stroke="#ffffff" stroke-width="2"/>
      <line x1="0" y1="0" x2="30" y2="20" stroke="#ffffff" stroke-width="2"/>
    </g>
    
    <g transform="translate(-150, 200)" opacity="0.4">
      <circle cx="0" cy="0" r="6" fill="#ffffff"/>
      <circle cx="-20" cy="-15" r="3" fill="#ffffff"/>
      <circle cx="20" cy="-15" r="3" fill="#ffffff"/>
      <circle cx="-20" cy="15" r="3" fill="#ffffff"/>
      <circle cx="20" cy="15" r="3" fill="#ffffff"/>
      <line x1="0" y1="0" x2="-20" y2="-15" stroke="#ffffff" stroke-width="1.5"/>
      <line x1="0" y1="0" x2="20" y2="-15" stroke="#ffffff" stroke-width="1.5"/>
      <line x1="0" y1="0" x2="-20" y2="15" stroke="#ffffff" stroke-width="1.5"/>
      <line x1="0" y1="0" x2="20" y2="15" stroke="#ffffff" stroke-width="1.5"/>
    </g>
    
    <g transform="translate(-250, 100)" opacity="0.3">
      <circle cx="0" cy="0" r="4" fill="#ffffff"/>
      <circle cx="-15" cy="-10" r="2" fill="#ffffff"/>
      <circle cx="15" cy="-10" r="2" fill="#ffffff"/>
      <circle cx="-15" cy="10" r="2" fill="#ffffff"/>
      <circle cx="15" cy="10" r="2" fill="#ffffff"/>
      <line x1="0" y1="0" x2="-15" y2="-10" stroke="#ffffff" stroke-width="1"/>
      <line x1="0" y1="0" x2="15" y2="-10" stroke="#ffffff" stroke-width="1"/>
      <line x1="0" y1="0" x2="-15" y2="10" stroke="#ffffff" stroke-width="1"/>
      <line x1="0" y1="0" x2="15" y2="10" stroke="#ffffff" stroke-width="1"/>
    </g>
  </g>
  
  <!-- Bottom Left Corner - Home & Construction Theme -->
  <g transform="translate(0, 1080)">
    <circle cx="0" cy="0" r="400" fill="url(#bottomLeftGradient)"/>
    
    <!-- House and construction icons -->
    <g transform="translate(150, -200)" opacity="0.6">
      <!-- House -->
      <path d="M0 -40L-30 -60L-60 -40V20H-40V-20H-20V20H0V-40Z" fill="#ffffff" stroke="#10b981" stroke-width="2"/>
      <rect x="-10" y="-10" width="20" height="30" fill="#10b981"/>
      <circle cx="0" cy="5" r="3" fill="#ffffff"/>
    </g>
    
    <g transform="translate(200, -150)" opacity="0.4">
      <!-- Hammer -->
      <rect x="-2" y="-20" width="4" height="25" fill="#ffffff"/>
      <rect x="-8" y="-25" width="16" height="8" fill="#ffffff"/>
      <circle cx="0" cy="-21" r="2" fill="#10b981"/>
    </g>
    
    <g transform="translate(100, -250)" opacity="0.3">
      <!-- Wrench -->
      <path d="M0 0L-15 -10L-10 -15L5 -5L0 0Z" fill="#ffffff"/>
      <circle cx="-12.5" cy="-12.5" r="3" fill="none" stroke="#ffffff" stroke-width="2"/>
    </g>
    
    <g transform="translate(250, -100)" opacity="0.3">
      <!-- Blueprint -->
      <rect x="-20" y="-15" width="40" height="30" fill="#ffffff" stroke="#10b981" stroke-width="1"/>
      <line x1="-15" y1="-10" x2="15" y2="-10" stroke="#10b981" stroke-width="1"/>
      <line x1="-15" y1="-5" x2="10" y2="-5" stroke="#10b981" stroke-width="1"/>
      <line x1="-15" y1="0" x2="15" y2="0" stroke="#10b981" stroke-width="1"/>
      <line x1="-15" y1="5" x2="5" y2="5" stroke="#10b981" stroke-width="1"/>
    </g>
  </g>
  
  <!-- Bottom Right Corner - Success & Quality Theme -->
  <g transform="translate(1920, 1080)">
    <circle cx="0" cy="0" r="400" fill="url(#bottomRightGradient)"/>
    
    <!-- Success and quality icons -->
    <g transform="translate(-200, -200)" opacity="0.6">
      <!-- Star -->
      <path d="M0 -25L7 -7L25 -7L14 5L18 23L0 15L-18 23L-14 5L-25 -7L-7 -7L0 -25Z" 
            fill="#ffffff" stroke="#8b5cf6" stroke-width="2"/>
    </g>
    
    <g transform="translate(-150, -150)" opacity="0.4">
      <!-- Trophy -->
      <rect x="-8" y="-20" width="16" height="8" fill="#ffffff"/>
      <rect x="-12" y="-12" width="24" height="20" fill="#ffffff"/>
      <rect x="-4" y="8" width="8" height="12" fill="#ffffff"/>
      <rect x="-8" y="20" width="16" height="4" fill="#ffffff"/>
      <circle cx="0" cy="-8" r="3" fill="#8b5cf6"/>
    </g>
    
    <g transform="translate(-250, -100)" opacity="0.3">
      <!-- Checkmark -->
      <circle cx="0" cy="0" r="15" fill="#ffffff"/>
      <path d="M-5 0L-2 3L5 -4" stroke="#8b5cf6" stroke-width="3" fill="none" stroke-linecap="round"/>
    </g>
    
    <g transform="translate(-100, -250)" opacity="0.3">
      <!-- Diamond -->
      <path d="M0 -15L10 0L0 15L-10 0L0 -15Z" fill="#ffffff" stroke="#8b5cf6" stroke-width="1.5"/>
    </g>
  </g>
  

</svg>
